<?xml version="1.0" standalone="no"?>
<!DOCTYPE svg PUBLIC "-//W3C//DTD SVG 20010904//EN"
 "http://www.w3.org/TR/2001/REC-SVG-20010904/DTD/svg10.dtd">
<svg version="1.0" xmlns="http://www.w3.org/2000/svg"
 width="1024.000000pt" height="1024.000000pt" viewBox="0 0 1024.000000 1024.000000"
 preserveAspectRatio="xMidYMid meet">

<g transform="translate(0.000000,1024.000000) scale(0.100000,-0.100000)"
fill="#000000" stroke="none">
<path d="M5018 8503 c46 -2 118 -2 160 0 42 1 5 3 -83 3 -88 0 -123 -2 -77 -3z"/>
<path d="M4853 8493 c15 -2 37 -2 50 0 12 2 0 4 -28 4 -27 0 -38 -2 -22 -4z"/>
<path d="M5298 8493 c12 -2 32 -2 45 0 12 2 2 4 -23 4 -25 0 -35 -2 -22 -4z"/>
<path d="M4785 8480 c25 -6 26 -8 7 -9 -13 0 -57 -8 -98 -17 -42 -8 -81 -13
-87 -11 -7 2 21 10 62 17 41 8 69 16 63 18 -31 10 -350 -77 -330 -90 9 -6 6
-7 -8 -3 -27 7 -194 -58 -324 -127 -160 -84 -398 -252 -465 -328 l-20 -22 100
-95 c55 -52 173 -160 263 -240 152 -137 177 -163 152 -163 -6 0 -10 -27 -10
-60 l0 -60 -77 -39 c-43 -22 -75 -40 -70 -41 4 0 40 16 79 36 53 27 69 31 64
19 -3 -9 -7 -85 -8 -168 l-2 -152 -3 128 -4 127 -29 0 c-16 0 -31 4 -35 9 -6
10 -62 -4 -79 -20 -6 -5 -14 -9 -20 -9 -5 0 -1 7 10 15 17 14 16 14 -16 2 -19
-8 -34 -19 -33 -25 1 -5 -5 -8 -15 -6 -9 2 -62 -20 -117 -49 l-100 -52 -3
-331 c-2 -279 -5 -334 -17 -344 -8 -7 -15 -27 -15 -44 0 -24 -8 -38 -30 -54
-17 -13 -30 -29 -30 -38 0 -8 -4 -13 -8 -10 -5 3 -22 -9 -38 -26 -24 -26 -26
-30 -9 -26 11 3 27 7 35 9 13 3 15 -21 17 -166 2 -184 -2 -205 -11 -55 -3 52
-7 100 -8 105 -1 6 -18 9 -39 7 -37 -4 -56 -23 -42 -44 3 -6 1 -8 -5 -4 -6 3
-12 -3 -14 -16 -2 -15 -11 -23 -30 -25 -27 -4 -28 -2 -30 49 l-1 53 -7 -55
c-4 -30 -7 -50 -8 -44 -1 5 -9 19 -18 30 -8 10 -13 14 -10 7 4 -6 2 -14 -4
-18 -6 -3 -10 4 -10 16 0 12 -3 20 -6 16 -4 -3 -13 0 -21 8 -19 19 -40 20 -24
2 6 -8 7 -17 2 -23 -11 -11 -18 -114 -27 -358 l-6 -179 43 7 c24 3 99 19 167
34 l123 27 -3 323 -3 322 140 0 c131 1 143 2 180 25 34 21 53 25 118 25 l79 0
151 107 c252 177 512 359 710 500 103 73 190 133 192 133 4 0 56 -36 370 -259
301 -213 378 -267 490 -343 66 -44 136 -94 156 -110 32 -24 45 -28 105 -28 56
0 77 -5 109 -25 22 -13 47 -24 55 -24 9 0 7 4 -6 9 -20 8 -91 57 -384 266 -69
49 -184 130 -254 179 -71 50 -228 162 -350 250 -122 88 -235 170 -253 183
l-31 22 -124 -87 c-67 -48 -220 -154 -338 -236 -118 -82 -243 -169 -277 -194
-35 -24 -63 -42 -63 -40 0 3 51 42 113 88 61 45 106 84 100 86 -7 3 -13 11
-13 19 0 8 -4 14 -10 14 -5 0 -10 5 -10 11 0 6 6 9 13 6 8 -3 14 1 14 8 0 7
-6 11 -14 8 -7 -3 -17 6 -23 23 -9 23 -13 25 -20 14 -8 -12 -10 -9 -10 10 0
22 -5 26 -27 25 -16 0 -27 -5 -26 -11 1 -6 -3 -11 -10 -11 -7 0 -50 -27 -97
-59 -47 -33 -92 -64 -100 -68 -81 -46 219 172 818 595 41 28 82 53 91 56 18 5
44 -13 318 -207 82 -57 222 -156 313 -220 91 -64 189 -133 218 -154 28 -21 52
-36 52 -33 0 3 -52 42 -115 88 l-114 84 -1 45 c0 25 -3 82 -7 128 l-6 82 164
0 164 0 -3 117 -3 118 103 86 c136 114 287 246 372 326 l69 65 -29 27 -28 26
22 -26 23 -26 -58 -55 c-32 -30 -79 -74 -106 -98 l-47 -43 -58 50 c-249 216
-582 375 -910 435 -160 29 -475 31 -637 4 -90 -15 -255 -56 -360 -91 -16 -5
-17 -4 -5 4 33 21 250 80 370 100 69 12 159 22 200 22 86 1 101 6 68 24 -14 7
-27 8 -35 2 -7 -5 -18 -7 -25 -4 -7 3 -4 6 7 6 16 1 17 3 5 11 -12 7 -11 10 8
17 l22 8 -21 13 c-16 10 -19 10 -14 1 5 -8 4 -10 -4 -5 -6 4 -9 16 -6 26 3 10
2 21 -3 24 -6 3 -9 -2 -8 -11 0 -9 -5 -18 -11 -20 -19 -7 -29 27 -12 38 12 7
12 9 0 9 -7 0 -11 6 -8 14 4 10 1 13 -9 9 -11 -4 -12 -9 -4 -18 8 -9 8 -15 0
-20 -6 -4 -10 -3 -9 2 2 8 -13 48 -32 85 -7 13 -4 16 11 13 11 -2 22 0 25 6 4
5 -19 9 -53 9 -33 0 -79 2 -103 4 -35 3 -38 2 -14 -4z m-210 -50 c-11 -5 -29
-8 -40 -8 -16 0 -15 2 5 8 34 11 60 11 35 0z m-175 -335 c-14 -8 -29 -14 -35
-14 -5 0 1 6 15 14 14 8 30 14 35 14 6 0 -1 -6 -15 -14z m955 -27 c324 -43
660 -196 907 -414 34 -31 35 -33 19 -48 -10 -9 -25 -14 -34 -11 -8 4 -18 2
-22 -4 -3 -7 0 -8 9 -5 30 12 16 -4 -70 -76 l-86 -71 -51 41 c-87 70 -228 160
-312 200 -276 131 -599 169 -900 105 -38 -8 -81 -17 -95 -20 -14 -2 1 4 33 15
76 26 256 50 372 50 117 0 222 -14 344 -47 53 -14 108 -26 124 -26 15 0 25 -2
22 -6 -3 -3 29 -22 72 -41 98 -46 239 -133 321 -199 34 -28 66 -51 70 -51 5 0
26 15 49 34 34 30 39 39 35 66 -4 28 -5 29 -18 13 -12 -16 -13 -16 -9 7 4 23
3 23 -9 7 -12 -15 -15 -15 -26 -2 -8 9 -29 15 -57 15 -29 0 -55 7 -74 21 -16
11 -40 22 -54 23 -14 1 -34 13 -44 25 -11 13 -25 20 -30 17 -6 -4 -20 3 -31
14 -12 12 -28 19 -36 16 -9 -3 -12 -1 -9 4 3 6 -3 10 -14 10 -12 0 -21 6 -21
13 0 9 -2 9 -9 -1 -6 -10 -10 -10 -21 3 -7 9 -9 15 -4 13 5 -2 11 1 14 6 3 5
-6 11 -20 13 -14 2 -26 8 -28 13 -2 6 -9 10 -16 10 -7 0 -28 15 -48 33 -39 36
-41 37 -64 37 -11 0 -14 5 -10 17 4 10 4 14 0 10 -4 -4 -23 7 -42 25 -19 18
-32 27 -28 21 4 -7 2 -13 -3 -13 -11 0 -14 11 -12 40 0 9 -2 10 -5 3 -6 -14
-34 -6 -51 15 -10 12 -13 12 -13 3 0 -9 -4 -10 -12 -4 -7 5 -20 9 -28 8 -8 0
-18 4 -22 9 -4 6 -14 4 -25 -5 -16 -13 -17 -13 -4 4 7 9 9 17 4 17 -5 0 -10 7
-10 15 0 10 12 15 36 16 81 3 -66 17 -184 18 -156 1 -285 -13 -415 -43 -156
-37 -158 -38 -117 -22 69 28 262 66 378 75 123 10 257 6 384 -11z m-1055 -18
c-30 -16 -59 -29 -65 -29 -5 0 15 13 45 29 30 16 60 29 65 29 6 0 -15 -13 -45
-29z m960 -5 c0 -12 -19 -12 -23 0 -4 9 -1 12 9 8 7 -3 14 -7 14 -8z m-1040
-30 c0 -2 -13 -11 -30 -20 -38 -19 -40 -11 -2 9 31 17 32 18 32 11z m260 -55
c-8 -5 -19 -10 -25 -10 -5 0 -3 5 5 10 8 5 20 10 25 10 6 0 3 -5 -5 -10z m-70
-30 c-8 -5 -19 -10 -25 -10 -5 0 -3 5 5 10 8 5 20 10 25 10 6 0 3 -5 -5 -10z
m1270 -187 c0 -14 -26 -11 -41 4 -8 8 -4 11 15 10 14 -1 26 -7 26 -14z m-1060
-13 c-8 -5 -19 -10 -25 -10 -5 0 -3 5 5 10 8 5 20 10 25 10 6 0 3 -5 -5 -10z
m731 -80 c165 -34 328 -102 469 -196 78 -52 166 -124 152 -124 -6 0 -24 12
-39 26 -47 44 -216 152 -300 190 -182 84 -359 119 -566 111 -135 -5 -173 -11
-361 -62 -17 -5 -18 -4 -5 4 17 11 193 57 244 64 95 13 312 6 406 -13z m489
16 c0 -11 -19 -15 -25 -6 -3 5 1 10 9 10 9 0 16 -2 16 -4z m-1170 -86 c-8 -5
-19 -10 -25 -10 -5 0 -3 5 5 10 8 5 20 10 25 10 6 0 3 -5 -5 -10z m1415 0 c-3
-5 -12 -10 -18 -10 -7 0 -6 4 3 10 19 12 23 12 15 0z m-1465 -20 c-8 -5 -19
-10 -25 -10 -5 0 -3 5 5 10 8 5 20 10 25 10 6 0 3 -5 -5 -10z m633 -92 c42
-28 77 -53 77 -55 0 -5 -11 2 -109 66 -45 30 -62 35 -108 35 -34 0 -48 3 -36
8 37 16 98 -3 176 -54z m-208 34 c-14 -12 -107 -76 -125 -86 -30 -18 5 12 64
53 53 37 85 54 61 33z m346 -129 c13 -16 12 -17 -3 -4 -10 7 -18 15 -18 17 0
8 8 3 21 -13z m357 -50 c-10 -2 -28 -2 -40 0 -13 2 -5 4 17 4 22 1 32 -1 23
-4z m-1771 -340 c-2 -16 -4 -3 -4 27 0 30 2 43 4 28 2 -16 2 -40 0 -55z m-170
-90 c-2 -16 -4 -5 -4 22 0 28 2 40 4 28 2 -13 2 -35 0 -50z m638 -31 c-3 -3
-11 0 -18 7 -9 10 -8 11 6 5 10 -3 15 -9 12 -12z m-265 -136 c0 -2 -17 -16
-37 -31 l-38 -26 35 30 c34 31 40 35 40 27z m-80 -61 c0 -2 -20 -18 -45 -35
-25 -17 -45 -29 -45 -26 0 4 80 64 88 66 1 0 2 -2 2 -5z m-702 -832 c-2 -44
-7 -59 -20 -61 -13 -3 -17 7 -20 57 -3 58 -2 61 20 61 22 0 23 -3 20 -57z"/>
<path d="M5385 8039 c22 -4 51 -8 65 -7 16 0 11 3 -15 9 -22 4 -51 8 -65 7
-16 0 -11 -3 15 -9z"/>
<path d="M5393 8483 c9 -2 23 -2 30 0 6 3 -1 5 -18 5 -16 0 -22 -2 -12 -5z"/>
<path d="M5475 8470 c17 -4 41 -8 55 -8 22 0 22 1 -5 8 -16 4 -41 8 -55 8 -22
0 -22 -1 5 -8z"/>
<path d="M4937 8449 c7 -7 15 -10 18 -7 3 3 -2 9 -12 12 -14 6 -15 5 -6 -5z"/>
<path d="M5568 8453 c7 -3 16 -2 19 1 4 3 -2 6 -13 5 -11 0 -14 -3 -6 -6z"/>
<path d="M5658 8433 c7 -3 16 -2 19 1 4 3 -2 6 -13 5 -11 0 -14 -3 -6 -6z"/>
<path d="M5728 8413 c7 -3 16 -2 19 1 4 3 -2 6 -13 5 -11 0 -14 -3 -6 -6z"/>
<path d="M5770 8402 c8 -5 26 -13 40 -16 17 -5 20 -4 10 2 -8 5 -26 13 -40 16
-17 5 -20 4 -10 -2z"/>
<path d="M5910 8350 c8 -5 20 -10 25 -10 6 0 3 5 -5 10 -8 5 -19 10 -25 10 -5
0 -3 -5 5 -10z"/>
<path d="M5970 8325 c14 -8 30 -14 35 -14 6 0 -1 6 -15 14 -14 8 -29 14 -35
14 -5 0 1 -6 15 -14z"/>
<path d="M6021 8306 c10 -9 189 -96 189 -91 0 5 -176 95 -186 95 -4 0 -5 -2
-3 -4z"/>
<path d="M5228 8243 c12 -2 30 -2 40 0 9 3 -1 5 -23 4 -22 0 -30 -2 -17 -4z"/>
<path d="M5338 8233 c7 -3 16 -2 19 1 4 3 -2 6 -13 5 -11 0 -14 -3 -6 -6z"/>
<path d="M5403 8223 c9 -2 23 -2 30 0 6 3 -1 5 -18 5 -16 0 -22 -2 -12 -5z"/>
<path d="M6220 8206 c0 -3 9 -10 20 -16 11 -6 20 -8 20 -6 0 3 -9 10 -20 16
-11 6 -20 8 -20 6z"/>
<path d="M6285 8165 c11 -9 29 -21 40 -26 l20 -10 -20 16 c-11 9 -29 21 -40
26 l-20 10 20 -16z"/>
<path d="M6380 8106 c0 -2 14 -14 30 -26 17 -12 30 -19 30 -16 0 2 -13 14 -30
26 -16 12 -30 19 -30 16z"/>
<path d="M6495 8020 c10 -11 20 -20 23 -20 3 0 -3 9 -13 20 -10 11 -20 20 -23
20 -3 0 3 -9 13 -20z"/>
<path d="M6545 7980 c10 -11 20 -20 23 -20 3 0 -3 9 -13 20 -10 11 -20 20 -23
20 -3 0 3 -9 13 -20z"/>
<path d="M6020 6766 c0 -2 8 -10 18 -17 15 -13 16 -12 3 4 -13 16 -21 21 -21
13z"/>
<path d="M3470 6550 c-19 -11 -30 -19 -25 -19 6 0 26 8 45 19 19 11 31 19 25
19 -5 0 -26 -8 -45 -19z"/>
<path d="M3544 6440 c0 -69 1 -97 3 -62 2 34 2 90 0 125 -2 34 -3 6 -3 -63z"/>
<path d="M4495 6469 c-232 -149 -458 -304 -463 -317 -8 -23 16 -190 43 -299
64 -253 201 -505 437 -801 106 -133 577 -612 602 -612 19 0 296 261 417 391
431 467 625 837 646 1230 l6 106 -34 25 c-53 40 -513 347 -516 345 -4 -5 -12
-173 -12 -294 l-1 -123 -500 0 -500 0 0 210 c0 116 -3 210 -8 210 -4 0 -57
-32 -117 -71z m1148 -262 c4 -73 17 -120 17 -66 0 19 2 21 10 9 5 -8 10 -30
10 -47 0 -18 5 -33 10 -33 6 0 10 -10 10 -22 0 -27 13 -15 15 15 2 16 7 21 21
19 10 -2 21 -8 22 -13 2 -5 8 -7 13 -3 5 3 9 -3 9 -13 0 -15 2 -15 9 -4 8 12
12 12 25 2 8 -7 21 -10 28 -6 7 4 1 -3 -14 -15 -16 -12 -28 -27 -28 -33 1 -8
5 -6 13 3 12 15 42 27 34 13 -3 -5 1 -14 9 -21 10 -10 14 -10 14 -1 0 7 3 9 6
6 4 -4 1 -13 -5 -21 -8 -9 -8 -16 -2 -20 16 -10 -8 -64 -39 -86 -15 -11 -30
-17 -34 -13 -3 3 -6 0 -6 -8 0 -11 -2 -11 -10 1 -6 10 -10 11 -10 3 0 -7 -11
-12 -25 -11 -14 1 -25 6 -25 11 0 4 -4 5 -10 2 -5 -3 -17 -2 -26 3 -11 6 -13
11 -5 16 6 4 11 3 11 -3 0 -6 7 -8 16 -4 14 5 12 9 -10 20 -31 16 -34 27 -5
18 15 -5 19 -4 15 4 -4 6 -18 11 -32 11 -14 0 -27 7 -30 15 -4 8 -11 12 -18 8
-6 -4 -4 2 4 12 14 17 13 18 -3 12 -11 -4 -16 -3 -12 3 3 6 13 10 21 10 8 0
14 7 14 15 0 8 -5 14 -11 13 -6 -2 -14 3 -16 10 -3 6 0 12 5 12 5 0 7 11 4 25
-3 18 -11 25 -26 25 -12 0 -28 6 -35 13 -11 10 -13 10 -7 0 9 -15 -30 -18 -39
-3 -3 5 -133 9 -322 10 -174 0 -319 3 -322 5 -2 3 165 5 372 5 l377 0 0 92 c0
50 2 89 4 87 2 -2 6 -39 9 -82z m222 0 c74 -47 122 -81 85 -62 -37 19 -190
117 -190 121 0 6 3 5 105 -59z m215 -71 c0 -4 9 -6 20 -3 18 5 20 0 20 -38 0
-109 -57 -310 -127 -450 -69 -137 -232 -366 -309 -435 -21 -19 -19 -13 11 25
21 28 50 63 64 79 15 16 20 25 12 21 -11 -6 -13 -4 -8 7 3 9 0 24 -7 34 -12
16 -17 14 -61 -27 l-49 -44 51 65 c222 288 341 550 343 758 0 40 1 41 20 30
11 -7 20 -17 20 -22z m-943 -112 c-3 -3 -12 -4 -19 -1 -8 3 -5 6 6 6 11 1 17
-2 13 -5z m87 -24 c7 -7 1 -7 -19 -1 -54 17 -61 21 -25 16 19 -3 39 -10 44
-15z m1 -22 c101 -53 134 -179 76 -284 -17 -28 -28 -54 -25 -56 2 -3 -3 -11
-13 -19 -11 -9 -14 -10 -9 -1 4 6 3 12 -3 12 -23 0 -25 -36 -10 -157 9 -70 14
-131 12 -135 -2 -5 -62 -8 -134 -8 l-129 0 0 53 c0 28 6 91 13 138 l13 87 -34
27 c-53 43 -75 103 -68 184 9 96 10 100 16 98 3 -1 26 16 50 37 25 21 37 36
27 33 -11 -4 -16 -3 -12 4 4 5 14 8 23 5 10 -2 37 -1 62 3 53 8 103 1 145 -21z
m105 -80 c0 -7 -7 -1 -17 12 -9 14 -23 34 -32 46 -9 11 -1 5 17 -13 17 -18 32
-38 32 -45z m17 -115 c-2 -16 -4 -5 -4 22 0 28 2 40 4 28 2 -13 2 -35 0 -50z
m-1081 -103 c24 -47 41 -87 38 -89 -5 -5 -100 196 -108 229 -3 14 2 7 11 -15
10 -22 36 -78 59 -125z m58 53 c9 -18 14 -33 12 -33 -6 0 -36 55 -36 66 0 11
5 3 24 -33z m27 -208 l10 -20 -16 20 c-9 11 -21 29 -26 40 l-10 20 16 -20 c9
-11 21 -29 26 -40z m1309 -348 c0 -2 -12 -14 -27 -28 l-28 -24 24 28 c23 25
31 32 31 24z"/>
<path d="M5647 6090 c-3 -11 -2 -20 3 -20 4 0 10 9 13 20 3 11 2 20 -3 20 -4
0 -10 -9 -13 -20z"/>
<path d="M5650 5945 c0 -8 4 -15 10 -15 5 0 7 7 4 15 -4 8 -8 15 -10 15 -2 0
-4 -7 -4 -15z"/>
<path d="M3340 6490 c-9 -6 -10 -10 -3 -10 6 0 15 5 18 10 8 12 4 12 -15 0z"/>
<path d="M3275 6460 c-3 -6 1 -7 9 -4 18 7 21 14 7 14 -6 0 -13 -4 -16 -10z"/>
<path d="M6280 6426 c0 -2 14 -14 30 -26 17 -12 30 -19 30 -16 0 2 -13 14 -30
26 -16 12 -30 19 -30 16z"/>
<path d="M6350 6376 c0 -2 8 -10 18 -17 15 -13 16 -12 3 4 -13 16 -21 21 -21
13z"/>
<path d="M3353 6330 c0 -25 2 -35 4 -22 2 12 2 32 0 45 -2 12 -4 2 -4 -23z"/>
<path d="M6390 6348 c0 -9 130 -108 141 -108 12 0 0 10 -88 74 -29 21 -53 36
-53 34z"/>
<path d="M3378 6123 c7 -3 16 -2 19 1 4 3 -2 6 -13 5 -11 0 -14 -3 -6 -6z"/>
<path d="M3642 5848 l3 -263 112 0 c62 0 109 -2 105 -6 -4 -4 -63 -16 -132
-28 -370 -65 -674 -150 -955 -269 -102 -43 -158 -73 -110 -58 89 26 474 112
655 147 143 27 480 75 620 89 63 6 116 13 118 15 2 1 -8 25 -21 52 -76 150
-138 359 -152 507 l-7 76 -119 0 -119 0 2 -262z"/>
<path d="M6340 6101 c0 -3 -5 -46 -11 -96 -15 -128 -54 -281 -105 -413 -24
-63 -44 -117 -44 -121 0 -4 48 -12 106 -19 255 -30 648 -108 947 -187 73 -19
137 -35 142 -35 18 1 -247 111 -385 160 -175 62 -351 113 -536 155 l-149 34
158 0 157 1 0 265 0 265 -72 -2 -73 -2 68 -3 67 -4 -2 -142 c-1 -133 -2 -137
-8 -57 -4 47 -5 106 -4 133 l3 47 -54 0 -55 0 -1 -112 c0 -62 -4 -131 -9 -153
-7 -33 -8 -29 -4 22 3 35 3 110 -1 168 l-7 105 -64 -1 c-35 -1 -64 -4 -64 -8z
m240 -86 c0 -8 -4 -16 -9 -19 -5 -3 -8 5 -8 19 0 14 3 22 8 19 5 -3 9 -11 9
-19z"/>
<path d="M3401 6084 c0 -11 3 -14 6 -6 3 7 2 16 -1 19 -3 4 -6 -2 -5 -13z"/>
<path d="M3401 6034 c0 -11 3 -14 6 -6 3 7 2 16 -1 19 -3 4 -6 -2 -5 -13z"/>
<path d="M3222 5920 c0 -14 2 -19 5 -12 2 6 2 18 0 25 -3 6 -5 1 -5 -13z"/>
<path d="M2190 3815 l0 -475 115 0 115 0 -2 478 c-1 285 -5 419 -8 332 l-6
-145 -3 118 c-2 64 -4 123 -5 130 -1 8 -29 13 -93 15 l-93 3 -3 -178 -2 -178
-3 182 -2 182 103 4 102 3 -107 2 -108 2 0 -475z m160 435 c0 -5 -7 -7 -15 -4
-8 4 -15 8 -15 10 0 2 7 4 15 4 8 0 15 -4 15 -10z"/>
<path d="M5234 4208 l-19 -23 23 19 c21 18 27 26 19 26 -2 0 -12 -10 -23 -22z"/>
<path d="M7341 4184 c0 -11 3 -14 6 -6 3 7 2 16 -1 19 -3 4 -6 -2 -5 -13z"/>
<path d="M3173 4009 c-24 -6 -60 -26 -86 -49 l-44 -39 -13 25 c-49 90 -220 85
-294 -8 l-26 -33 0 48 0 47 -85 0 -85 0 0 -330 0 -330 99 0 99 0 -2 198 c-1
250 11 292 87 292 53 0 57 -17 57 -263 l0 -227 99 0 100 0 3 219 c3 218 3 220
28 246 19 20 32 25 59 23 57 -5 61 -23 61 -270 l0 -218 96 0 95 0 -3 273 c-2
223 -6 277 -19 302 -8 17 -20 29 -27 28 -6 -2 -9 3 -6 10 6 17 -62 55 -112 61
-21 3 -58 0 -81 -5z"/>
<path d="M4167 4005 c-27 -7 -69 -27 -94 -44 l-45 -32 -20 26 c-28 36 -70 55
-121 55 -75 0 -108 -11 -148 -51 l-38 -38 -3 37 -3 37 -92 3 -93 3 0 -331 0
-330 104 0 105 0 3 219 c3 218 3 220 28 246 19 20 32 25 59 23 58 -5 61 -22
59 -271 l-3 -217 97 0 97 0 3 219 c3 217 3 220 27 245 17 18 35 26 57 26 58 0
64 -26 64 -275 l0 -215 100 0 100 0 0 248 c0 147 -5 263 -11 287 -29 106 -123
159 -232 130z"/>
<path d="M4711 4009 c-175 -34 -270 -190 -241 -395 18 -130 67 -210 155 -257
62 -32 202 -36 277 -7 76 28 140 92 169 168 32 85 31 225 -2 307 -14 33 -30
59 -36 58 -6 -1 -17 5 -25 15 -12 15 -11 16 5 3 9 -7 17 -10 17 -5 0 12 -52
64 -64 64 -6 -1 0 -10 13 -20 13 -11 19 -20 14 -20 -14 0 -44 35 -37 43 9 9
-36 29 -52 23 -8 -3 -13 -2 -10 3 9 14 -34 21 -94 16 -44 -3 -48 -2 -20 4 34
8 34 8 5 9 -16 0 -50 -4 -74 -9z m156 -15 c-3 -3 -12 -4 -19 -1 -8 3 -5 6 6 6
11 1 17 -2 13 -5z m-43 -158 c24 -10 38 -25 49 -55 19 -47 22 -156 7 -213 -21
-74 -101 -101 -157 -54 -79 66 -68 294 15 325 37 13 48 13 86 -3z"/>
<path d="M7940 3925 c13 -14 26 -25 28 -25 3 0 -5 11 -18 25 -13 14 -26 25
-28 25 -3 0 5 -11 18 -25z"/>
<path d="M7435 3869 c-4 -6 -5 -12 -2 -15 2 -3 7 2 10 11 7 17 1 20 -8 4z"/>
<path d="M6540 3849 c-7 -11 -10 -23 -7 -25 2 -2 9 7 15 21 14 30 7 33 -8 4z"/>
<path d="M7001 3854 c0 -11 3 -14 6 -6 3 7 2 16 -1 19 -3 4 -6 -2 -5 -13z"/>
<path d="M6150 3846 c0 -2 9 -6 20 -9 11 -3 18 -1 14 4 -5 9 -34 13 -34 5z"/>
<path d="M6848 3843 c12 -2 30 -2 40 0 9 3 -1 5 -23 4 -22 0 -30 -2 -17 -4z"/>
<path d="M7738 3843 c7 -3 16 -2 19 1 4 3 -2 6 -13 5 -11 0 -14 -3 -6 -6z"/>
<path d="M5690 3815 c13 -14 26 -25 28 -25 3 0 -5 11 -18 25 -13 14 -26 25
-28 25 -3 0 5 -11 18 -25z"/>
<path d="M6049 3823 c-13 -16 -12 -17 4 -4 16 13 21 21 13 21 -2 0 -10 -8 -17
-17z"/>
<path d="M5250 3826 c0 -2 8 -10 18 -17 15 -13 16 -12 3 4 -13 16 -21 21 -21
13z"/>
<path d="M7780 3826 c0 -2 8 -10 18 -17 15 -13 16 -12 3 4 -13 16 -21 21 -21
13z"/>
<path d="M5305 3783 c11 -8 56 -32 101 -53 137 -65 174 -114 125 -167 -11 -12
-18 -23 -15 -26 3 -2 -8 -2 -23 0 -22 4 -25 2 -13 -7 12 -8 10 -9 -10 -5 -14
3 -49 7 -77 8 -28 1 -49 5 -47 8 5 9 -45 21 -56 14 -15 -9 -70 24 -71 43 0 9
-9 -7 -20 -37 -10 -29 -16 -58 -12 -64 3 -5 1 -7 -4 -4 -13 8 -37 -47 -30 -67
8 -21 92 -61 168 -81 81 -22 191 -15 272 15 63 24 133 82 121 101 -4 8 -3 9 5
5 17 -11 44 61 37 98 -4 22 -3 27 4 16 7 -11 9 3 8 45 l-1 60 -7 -45 c-4 -25
-8 -34 -9 -20 -1 14 -4 35 -7 47 -5 20 -9 21 -28 11 -22 -12 -24 -12 -41 2 -6
5 -24 7 -42 6 -18 -1 -31 3 -30 8 1 6 -4 10 -12 8 -7 -1 -19 3 -27 9 -11 9
-14 8 -15 -2 0 -8 -4 -5 -9 6 -5 11 -9 14 -9 6 -1 -8 -8 -11 -21 -8 -11 3 -18
1 -14 -4 10 -16 -10 -9 -111 41 -55 27 -91 42 -80 33z m215 -93 c0 -5 -2 -10
-4 -10 -3 0 -8 5 -11 10 -3 6 -1 10 4 10 6 0 11 -4 11 -10z m38 -46 c-4 -3
-12 5 -18 18 -12 22 -12 22 6 6 10 -10 15 -20 12 -24z"/>
<path d="M7821 3754 c0 -11 3 -14 6 -6 3 7 2 16 -1 19 -3 4 -6 -2 -5 -13z"/>
<path d="M6442 3681 c-2 -84 -17 -157 -35 -176 -7 -7 -7 -3 -3 10 4 11 10 35
13 53 6 35 6 35 -95 34 -25 0 -35 5 -41 21 -7 19 -9 17 -15 -14 -3 -20 -13
-44 -21 -55 -15 -19 -15 -19 -9 1 5 18 4 18 -6 2 -6 -9 -8 -22 -4 -29 4 -6 3
-8 -3 -5 -6 4 -16 0 -23 -8 -7 -8 -19 -15 -27 -15 -8 0 -12 -4 -9 -9 11 -18
-79 11 -102 32 -13 12 -27 20 -30 17 -4 -3 -14 14 -22 38 -13 37 -18 43 -37
39 -13 -2 -23 1 -23 7 0 7 -3 8 -8 1 -10 -15 -74 -15 -92 -1 -13 10 -13 9 -1
-6 8 -11 9 -18 3 -18 -6 0 -13 -10 -15 -22 -3 -17 -4 -15 -2 4 1 15 -2 25 -7
22 -4 -3 -9 30 -10 73 -2 74 -2 75 -6 18 -4 -67 12 -164 35 -210 27 -53 94
-114 151 -135 66 -25 179 -27 251 -3 59 19 145 88 137 110 -3 8 -2 11 4 8 5
-3 15 7 23 22 27 54 38 119 35 198 l-4 80 -2 -84z"/>
<path d="M5741 3745 c1 -19 18 -51 18 -35 0 8 -4 22 -9 30 -5 8 -9 11 -9 5z"/>
<path d="M6242 3730 c0 -14 2 -19 5 -12 2 6 2 18 0 25 -3 6 -5 1 -5 -13z"/>
<path d="M6014 3660 c1 -47 8 -94 15 -105 l13 -20 -7 20 c-4 11 -11 58 -15
105 l-8 85 2 -85z"/>
<path d="M7593 3675 c0 -38 2 -53 4 -32 2 20 2 52 0 70 -2 17 -4 1 -4 -38z"/>
<path d="M6503 3665 c0 -38 2 -53 4 -32 2 20 2 52 0 70 -2 17 -4 1 -4 -38z"/>
<path d="M7832 3675 c-1 -33 -5 -71 -7 -85 l-6 -25 11 25 c6 13 9 51 7 85 l-3
60 -2 -60z"/>
<path d="M8030 3668 c-3 -37 -1 -63 3 -59 4 4 7 35 5 67 l-3 59 -5 -67z"/>
<path d="M6703 3670 c0 -30 2 -43 4 -27 2 15 2 39 0 55 -2 15 -4 2 -4 -28z"/>
<path d="M7393 3660 c0 -36 2 -50 4 -32 2 17 2 47 0 65 -2 17 -4 3 -4 -33z"/>
<path d="M6251 3674 c0 -11 3 -14 6 -6 3 7 2 16 -1 19 -3 4 -6 -2 -5 -13z"/>
<path d="M7299 3578 c-1 -73 -2 -76 -13 -28 -5 23 -10 25 -56 27 -28 1 -57 6
-64 13 -11 8 -15 8 -19 -2 -4 -10 -10 -8 -21 6 -15 18 -16 9 -16 -117 l0 -137
100 0 100 0 0 155 c0 85 -2 155 -5 155 -3 0 -5 -33 -6 -72z"/>
<path d="M6242 3600 c0 -14 2 -19 5 -12 2 6 2 18 0 25 -3 6 -5 1 -5 -13z"/>
<path d="M6711 3594 c0 -11 3 -14 6 -6 3 7 2 16 -1 19 -3 4 -6 -2 -5 -13z"/>
<path d="M5250 3581 c24 -20 40 -26 40 -16 0 2 -15 12 -32 20 l-33 16 25 -20z"/>
<path d="M6533 3555 l5 -40 -14 40 -14 40 5 -35 c7 -49 47 -125 65 -125 8 -1
14 -6 13 -13 -4 -17 55 -58 110 -76 60 -20 188 -21 253 -1 79 24 77 21 63 112
l-12 81 -29 -10 c-15 -5 -26 -14 -23 -18 5 -8 -19 -20 -38 -19 -7 0 -3 4 8 8
11 5 -10 6 -50 4 -64 -5 -74 -3 -110 22 -22 15 -33 20 -26 11 9 -11 10 -16 2
-16 -7 0 -20 18 -30 41 -12 26 -21 37 -26 29 -6 -9 -9 -9 -15 0 -6 9 -12 9
-27 -1 -13 -7 -28 -9 -39 -4 -11 5 -32 9 -47 9 -28 1 -29 0 -24 -39z m467 -45
c0 -5 -7 -7 -15 -4 -8 4 -15 8 -15 10 0 2 7 4 15 4 8 0 15 -4 15 -10z m-147
-27 c-7 -2 -19 -2 -25 0 -7 3 -2 5 12 5 14 0 19 -2 13 -5z"/>
<path d="M7401 3578 c-1 -25 35 -117 55 -139 9 -10 21 -16 27 -12 6 3 7 1 3
-5 -8 -14 52 -60 101 -78 58 -20 183 -18 243 5 62 24 123 68 114 83 -4 7 -2 8
4 4 7 -4 23 14 42 46 27 48 43 94 20 58 -8 -12 -10 -9 -10 12 0 26 -8 29 -41
14 -17 -7 -97 -1 -107 9 -3 3 -16 -12 -28 -33 -13 -20 -24 -32 -24 -25 0 6 5
15 10 18 6 3 10 11 10 17 0 6 -10 -2 -22 -18 -13 -16 -22 -32 -21 -36 2 -4 -5
-4 -14 -1 -9 4 -14 2 -11 -3 4 -5 -15 -9 -41 -9 -54 0 -97 24 -111 61 -10 26
-17 28 -72 15 -22 -5 -36 -5 -32 0 3 5 -3 9 -13 10 -10 0 -29 2 -42 5 -20 4
-22 1 -17 -21 9 -37 -2 -30 -13 8 -5 17 -10 24 -10 15z m42 -78 c3 -11 1 -18
-4 -14 -5 3 -9 12 -9 20 0 20 7 17 13 -6z m540 -15 c-3 -9 -8 -14 -10 -11 -3
3 -2 9 2 15 9 16 15 13 8 -4z"/>
<path d="M8021 3574 c0 -11 3 -14 6 -6 3 7 2 16 -1 19 -3 4 -6 -2 -5 -13z"/>
<path d="M7610 3554 c0 -15 49 -64 64 -64 6 0 1 7 -11 15 -12 9 -29 26 -38 38
-8 12 -15 17 -15 11z"/>
<path d="M5881 3014 c0 -11 3 -14 6 -6 3 7 2 16 -1 19 -3 4 -6 -2 -5 -13z"/>
</g>
</svg>
